<svg width="17" height="16" viewBox="0 0 17 16" fill="none" xmlns="http://www.w3.org/2000/svg">
<g clip-path="url(#clip0_2_350)">
<path d="M13.9461 8.05268C13.8368 7.66201 13.7134 7.24868 13.5761 6.80401C13.1694 5.68282 12.8947 4.51809 12.7574 3.33334C12.7574 3.15653 12.8277 2.98696 12.9527 2.86194C13.0777 2.73691 13.2473 2.66668 13.4241 2.66668C13.6009 2.66668 13.7705 2.73691 13.8955 2.86194C14.0205 2.98696 14.0908 3.15653 14.0908 3.33334C14.0908 3.51015 14.161 3.67972 14.286 3.80475C14.411 3.92977 14.5806 4.00001 14.7574 4.00001C14.9342 4.00001 15.1038 3.92977 15.2288 3.80475C15.3539 3.67972 15.4241 3.51015 15.4241 3.33334C15.4241 2.80291 15.2134 2.2942 14.8383 1.91913C14.4632 1.54406 13.9545 1.33334 13.4241 1.33334C12.8937 1.33334 12.3849 1.54406 12.0099 1.91913C11.6348 2.2942 11.4241 2.80291 11.4241 3.33334C11.4406 3.84241 11.5119 4.34821 11.6368 4.84201L8.43675 7.33334L4.73809 4.66668H6.75742C6.93423 4.66668 7.1038 4.59644 7.22883 4.47141C7.35385 4.34639 7.42409 4.17682 7.42409 4.00001C7.42409 3.8232 7.35385 3.65363 7.22883 3.52861C7.1038 3.40358 6.93423 3.33334 6.75742 3.33334H4.73809C4.46113 3.33326 4.19124 3.42078 3.96704 3.58337C3.74284 3.74597 3.57581 3.97532 3.48985 4.23859C3.40389 4.50187 3.40341 4.7856 3.48847 5.04917C3.57353 5.31274 3.73977 5.54265 3.96342 5.70601L7.34409 8.18068L6.38542 8.92668C5.78995 8.36603 5.00763 8.04628 4.18993 8.02932C3.37224 8.01236 2.57733 8.29941 1.95913 8.83489C1.34093 9.37037 0.9434 10.1162 0.843517 10.9279C0.743634 11.7397 0.9485 12.5596 1.41845 13.229C1.8884 13.8984 2.59 14.3696 3.38742 14.5513C4.18483 14.7331 5.02133 14.6125 5.73496 14.213C6.44858 13.8134 6.98857 13.1633 7.25036 12.3884C7.51216 11.6136 7.47714 10.7692 7.15209 10.0187L12.0114 6.23934C12.1054 6.55668 12.4961 7.82868 12.5821 8.12134C11.7852 8.3294 11.0938 8.82542 10.6413 9.51356C10.1888 10.2017 10.0075 11.0331 10.1323 11.8472C10.2571 12.6612 10.6792 13.4002 11.317 13.9212C11.9548 14.4422 12.7631 14.7083 13.5857 14.6681C14.4083 14.6278 15.1868 14.2842 15.7708 13.7035C16.3547 13.1228 16.7028 12.3462 16.7476 11.5238C16.7924 10.7015 16.5308 9.89173 16.0134 9.25099C15.496 8.61025 14.7594 8.18403 13.9461 8.05468V8.05268Z" fill="#0E1114"/>
</g>
<defs>
<clipPath id="clip0_2_350">
<rect width="16" height="16" fill="white" transform="translate(0.757446)"/>
</clipPath>
</defs>
</svg>
