<svg width="15" height="16" viewBox="0 0 15 16" fill="none" xmlns="http://www.w3.org/2000/svg">
<path fill-rule="evenodd" clip-rule="evenodd" d="M7.50075 1.33159C7.23505 1.06591 6.87472 0.916656 6.49902 0.916656H1.41914C0.636735 0.916656 0.00247192 1.55092 0.00247192 2.33332V7.41321C0.00247192 7.78891 0.151725 8.14924 0.417406 8.41493L6.79241 14.7899C7.34562 15.3431 8.24266 15.3431 8.79586 14.7899L13.8757 9.71005C14.429 9.15684 14.429 8.25981 13.8757 7.7066L7.50075 1.33159ZM4.96081 4.81249C4.96081 5.39929 4.48511 5.87499 3.89831 5.87499C3.3115 5.87499 2.83581 5.39929 2.83581 4.81249C2.83581 4.22569 3.3115 3.74999 3.89831 3.74999C4.48511 3.74999 4.96081 4.22569 4.96081 4.81249Z" fill="#0E1114"/>
</svg>
