<svg width="19" height="19" viewBox="0 0 19 19" fill="none" xmlns="http://www.w3.org/2000/svg">
<path d="M17.4796 12.1717C18.226 10.1516 18.226 7.93129 17.4796 5.91117L9.03971 5.12817L0.599788 5.91048C-0.146544 7.9306 -0.146544 10.1509 0.599788 12.171L9.03971 12.954L17.4796 12.1717Z" fill="#F0F0F0"/>
<path d="M9.03978 18.041C10.8776 18.0414 12.6714 17.4792 14.1802 16.4299C15.689 15.3807 16.8404 13.8946 17.4797 12.1716H0.599854C1.23912 13.8946 2.39054 15.3807 3.89934 16.4299C5.40814 17.4792 7.202 18.0414 9.03978 18.041Z" fill="#D80027"/>
<path d="M9.03978 0.0410158C7.202 0.0406159 5.40814 0.602836 3.89934 1.6521C2.39054 2.70137 1.23912 4.18739 0.599854 5.9104H17.4797C16.8404 4.18739 15.689 2.70137 14.1802 1.6521C12.6714 0.602836 10.8776 0.0406159 9.03978 0.0410158Z" fill="#6DA544"/>
<path d="M2.67616 2.67737C1.84041 3.5131 1.17745 4.50526 0.725144 5.59721C0.272838 6.68915 0.0400391 7.85949 0.0400391 9.04141C0.0400391 10.2233 0.272838 11.3937 0.725144 12.4856C1.17745 13.5776 1.84041 14.5697 2.67616 15.4054L5.90992 12.1717V5.91044L2.67616 2.67737Z" fill="black"/>
</svg>
