<svg width="13" height="14" viewBox="0 0 13 14" fill="none" xmlns="http://www.w3.org/2000/svg">
<path d="M7.9263 0.146933H3.99517C3.91516 0.140406 3.83462 0.146559 3.75652 0.165163C3.7086 0.181866 3.66501 0.209042 3.62891 0.244714C3.57761 0.305827 3.53623 0.374614 3.50627 0.448562L0.635818 6.18781C0.504891 6.44966 0.438599 6.58059 0.455172 6.685C0.461954 6.73109 0.478098 6.7753 0.50261 6.81492C0.527121 6.85454 0.559482 6.88872 0.5977 6.91536C0.685537 6.97668 0.833037 6.97668 1.12472 6.97668H5.36411L3.31568 13.8131L11.6469 5.17354C11.9287 4.88185 12.0679 4.73601 12.0762 4.61171C12.0797 4.55829 12.0705 4.50481 12.0495 4.45559C12.0285 4.40636 11.9962 4.36276 11.9552 4.32831C11.8591 4.2471 11.6569 4.2471 11.2525 4.2471H6.38998L7.9263 0.146933Z" fill="#02C9C0"/>
</svg>
