<svg width="25" height="22" viewBox="0 0 25 22" fill="none" xmlns="http://www.w3.org/2000/svg">
<g clip-path="url(#clip0_2_243)">
<mask id="mask0_2_243" style="mask-type:luminance" maskUnits="userSpaceOnUse" x="0" y="0" width="25" height="22">
<path d="M24.4228 0H0.730469V22H24.4228V0Z" fill="white"/>
</mask>
<g mask="url(#mask0_2_243)">
<path d="M6.12808 20.2933C6.12808 19.3507 9.01516 18.5866 12.5766 18.5866C16.1381 18.5866 19.0252 19.3481 19.0252 20.2933C19.0252 21.2385 16.1372 22 12.5766 22C9.016 22 6.12808 21.2385 6.12808 20.2933Z" fill="#D7D7D7"/>
<path d="M13.3348 7.58662H11.8176V19.7238C11.8344 19.9135 11.9216 20.0899 12.062 20.2185C12.2024 20.347 12.3858 20.4183 12.5762 20.4183C12.7666 20.4183 12.95 20.347 13.0904 20.2185C13.2308 20.0899 13.318 19.9135 13.3348 19.7238V7.58662Z" fill="#141414"/>
<path d="M8.02432 4.55146C8.02432 5.45162 8.29124 6.33156 8.79132 7.08003C9.29141 7.82849 10.0022 8.41187 10.8338 8.75638C11.6654 9.10089 12.5805 9.19108 13.4634 9.01553C14.3463 8.83998 15.1573 8.40658 15.7939 7.77013C16.4304 7.13368 16.864 6.32277 17.0397 5.43992C17.2154 4.55708 17.1254 3.64196 16.781 2.81028C16.4367 1.97859 15.8534 1.26769 15.1051 0.767471C14.3567 0.267248 13.4768 0.000167425 12.5766 7.86607e-08C11.9789 -0.000111053 11.3869 0.117534 10.8346 0.346216C10.2823 0.574899 9.78045 0.910139 9.35771 1.33279C8.93498 1.75545 8.59965 2.25723 8.37086 2.8095C8.14208 3.36176 8.02432 3.95368 8.02432 4.55146Z" fill="#02AFA7"/>
<path d="M9.54147 4.55146C9.54147 5.15156 9.71941 5.73818 10.0528 6.23715C10.3862 6.73612 10.86 7.12503 11.4144 7.35472C11.9688 7.5844 12.5789 7.64454 13.1674 7.52753C13.756 7.41052 14.2967 7.12161 14.7211 6.69734C15.1454 6.27307 15.4345 5.73249 15.5517 5.14395C15.6689 4.5554 15.6089 3.94533 15.3794 3.39087C15.1498 2.83641 14.761 2.36246 14.2622 2.02894C13.7633 1.69542 13.1767 1.51732 12.5766 1.51715C12.1781 1.51704 11.7834 1.59545 11.4152 1.74788C11.047 1.90032 10.7124 2.12381 10.4305 2.40558C10.1486 2.68736 9.92507 3.02189 9.77253 3.39009C9.61999 3.75828 9.54147 4.15292 9.54147 4.55146Z" fill="#02F0E5"/>
</g>
</g>
<defs>
<clipPath id="clip0_2_243">
<rect width="23.6923" height="22" fill="white" transform="translate(0.730469)"/>
</clipPath>
</defs>
</svg>
