<svg width="35" height="34" viewBox="0 0 35 34" fill="none" xmlns="http://www.w3.org/2000/svg">
<path d="M26.3758 0H9.40937C4.72664 0 0.926163 3.808 0.926163 8.5V25.5C0.926163 30.192 4.72664 34 9.40937 34H26.3758C31.0585 34 34.859 30.192 34.859 25.5V8.5C34.859 3.808 31.0585 0 26.3758 0Z" fill="#02AFA7"/>
<path d="M27.4172 21.2971H26.2094V19.7838C26.2094 18.7704 25.4257 17.9461 24.4621 17.9461H13.2072C12.8475 17.9461 12.5648 18.2434 12.5648 18.6217C12.5648 19.0001 12.8475 19.2973 13.2072 19.2973H24.4621C24.7191 19.2973 24.9246 19.5135 24.9246 19.7838V21.2836H10.5477C10.5477 21.2836 10.522 20.8647 10.522 20.6621C10.522 16.1085 13.8625 12.3926 17.9739 12.3926C20.2608 12.3926 22.3936 13.5411 23.8197 15.5274C24.0381 15.8247 24.4364 15.8923 24.7191 15.6626C25.0017 15.4328 25.066 15.014 24.8476 14.7167C23.2673 12.5142 20.9546 11.2035 18.4364 11.0549V9.78476C18.6548 9.59559 18.7961 9.31183 18.7961 8.98754C18.7961 8.40652 18.3465 7.93359 17.794 7.93359C17.2415 7.93359 16.7918 8.40652 16.7918 8.98754C16.7918 9.31183 16.9332 9.59559 17.1516 9.78476V11.0009H7.97809C7.61835 11.0009 7.33569 11.2981 7.33569 11.6765C7.33569 12.0548 7.61835 12.3521 7.97809 12.3521H13.6055C12.7576 12.8926 11.9995 13.5817 11.37 14.3924H8.20936C7.84961 14.3924 7.56696 14.6897 7.56696 15.068C7.56696 15.4464 7.84961 15.7436 8.20936 15.7436H10.4706C10.1109 16.4057 9.81536 17.1219 9.60979 17.8785H8.2993C7.9524 17.8785 7.68259 18.1758 7.68259 18.5542C7.68259 18.9325 7.96525 19.2298 8.2993 19.2298H9.33999C9.27575 19.7027 9.2629 21.2971 9.2629 21.2971H8.10658C7.74683 21.2971 7.46417 21.5944 7.46417 21.9727C7.46417 22.3511 7.74683 22.6483 8.10658 22.6483H9.96954H11.0873C10.9331 22.9591 10.8561 23.324 10.8561 23.6888C10.8561 24.9995 11.871 26.0669 13.1173 26.0669C14.3636 26.0669 15.3786 24.9995 15.3786 23.6888C15.3786 23.3104 15.2886 22.9591 15.1473 22.6483H20.4664C20.3122 22.9591 20.2351 23.324 20.2351 23.6888C20.2351 24.9995 21.2501 26.0669 22.4964 26.0669C23.7426 26.0669 24.7576 24.9995 24.7576 23.6888C24.7576 23.3104 24.6677 22.9591 24.5264 22.6483H27.43C27.7898 22.6483 28.0724 22.3511 28.0724 21.9727C28.0724 21.5944 27.7641 21.2971 27.4172 21.2971ZM13.1173 24.7157C12.5777 24.7157 12.1409 24.2563 12.1409 23.6888C12.1409 23.1213 12.5777 22.6619 13.1173 22.6619C13.6569 22.6619 14.0938 23.1213 14.0938 23.6888C14.0938 24.2563 13.6569 24.7157 13.1173 24.7157ZM22.4835 24.7157C21.9439 24.7157 21.5071 24.2563 21.5071 23.6888C21.5071 23.1213 21.9439 22.6619 22.4835 22.6619C23.0231 22.6619 23.46 23.1213 23.46 23.6888C23.46 24.2563 23.0231 24.7157 22.4835 24.7157Z" fill="white"/>
</svg>
