<svg width="24" height="25" viewBox="0 0 24 25" fill="none" xmlns="http://www.w3.org/2000/svg">
<path d="M11.9969 2.40723C14.7118 2.40723 15.0523 2.41874 16.1185 2.46739C17.1826 2.51592 17.9093 2.68493 18.5452 2.93207C19.2025 3.1875 19.76 3.52933 20.3158 4.08508C20.8716 4.64088 21.2134 5.19838 21.4689 5.85576C21.716 6.49163 21.885 7.21834 21.9335 8.28239C21.9822 9.34866 21.9937 9.68909 21.9937 12.4041C21.9937 15.119 21.9822 15.4595 21.9335 16.5257C21.885 17.5898 21.716 18.3165 21.4689 18.9524C21.2134 19.6098 20.8716 20.1673 20.3158 20.7231C19.76 21.2788 19.2025 21.6206 18.5452 21.8761C17.9093 22.1232 17.1826 22.2922 16.1185 22.3407C15.0523 22.3894 14.7118 22.4009 11.9969 22.4009C9.28187 22.4009 8.94143 22.3894 7.87516 22.3407C6.81111 22.2922 6.0844 22.1232 5.44853 21.8761C4.79115 21.6206 4.23365 21.2788 3.67786 20.7231C3.1221 20.1673 2.78028 19.6098 2.52484 18.9524C2.2777 18.3165 2.10869 17.5898 2.06016 16.5257C2.01151 15.4595 2 15.119 2 12.4041C2 9.68909 2.01151 9.34866 2.06016 8.28239C2.10869 7.21834 2.2777 6.49163 2.52484 5.85576C2.78028 5.19838 3.1221 4.64088 3.67786 4.08508C4.23365 3.52933 4.79115 3.1875 5.44853 2.93207C6.0844 2.68493 6.81111 2.51592 7.87516 2.46739C8.94143 2.41874 9.28187 2.40723 11.9969 2.40723ZM11.9969 4.20846C9.32758 4.20846 9.01139 4.21866 7.95726 4.26675C6.98258 4.3112 6.45325 4.47405 6.10099 4.61096C5.63437 4.79231 5.30135 5.00893 4.95155 5.35877C4.60171 5.70858 4.38508 6.04159 4.20373 6.50822C4.06683 6.86048 3.90397 7.38981 3.85952 8.36449C3.81143 9.41862 3.80123 9.73481 3.80123 12.4041C3.80123 15.0733 3.81143 15.3895 3.85952 16.4436C3.90397 17.4183 4.06683 17.9477 4.20373 18.2999C4.38508 18.7665 4.60175 19.0996 4.95155 19.4494C5.30135 19.7992 5.63437 20.0158 6.10099 20.1972C6.45325 20.3341 6.98258 20.4969 7.95726 20.5414C9.01127 20.5895 9.32738 20.5997 11.9969 20.5997C14.6663 20.5997 14.9825 20.5895 16.0364 20.5414C17.0111 20.4969 17.5404 20.3341 17.8927 20.1972C18.3593 20.0158 18.6923 19.7992 19.0421 19.4494C19.392 19.0996 19.6086 18.7665 19.79 18.2999C19.9269 17.9477 20.0897 17.4183 20.1342 16.4436C20.1823 15.3895 20.1925 15.0733 20.1925 12.4041C20.1925 9.73481 20.1823 9.41862 20.1342 8.36449C20.0897 7.38981 19.9269 6.86048 19.79 6.50822C19.6086 6.04159 19.392 5.70858 19.0421 5.35877C18.6923 5.00893 18.3593 4.79231 17.8927 4.61096C17.5404 4.47405 17.0111 4.3112 16.0364 4.26675C14.9823 4.21866 14.6661 4.20846 11.9969 4.20846ZM11.9969 15.7363C13.8372 15.7363 15.3291 14.2444 15.3291 12.4041C15.3291 10.5637 13.8372 9.07179 11.9969 9.07179C10.1565 9.07179 8.66456 10.5637 8.66456 12.4041C8.66456 14.2444 10.1565 15.7363 11.9969 15.7363ZM11.9969 7.27056C14.832 7.27056 17.1304 9.56889 17.1304 12.4041C17.1304 15.2392 14.832 17.5376 11.9969 17.5376C9.16167 17.5376 6.86333 15.2392 6.86333 12.4041C6.86333 9.56889 9.16167 7.27056 11.9969 7.27056ZM18.5328 7.06774C18.5328 7.73028 17.9957 8.26735 17.3332 8.26735C16.6707 8.26735 16.1336 7.73028 16.1336 7.06774C16.1336 6.4052 16.6707 5.8681 17.3332 5.8681C17.9957 5.8681 18.5328 6.4052 18.5328 7.06774Z" fill="white" fill-opacity="0.8"/>
</svg>
