<svg width="21" height="25" viewBox="0 0 21 25" fill="none" xmlns="http://www.w3.org/2000/svg">
<path d="M4.70062 21.4009H0.346875V7.38059H4.70062V21.4009ZM2.52141 5.46809C1.12922 5.46809 0 4.31496 0 2.92277C9.96468e-09 2.25405 0.265647 1.61273 0.738503 1.13987C1.21136 0.667015 1.85269 0.401367 2.52141 0.401367C3.19012 0.401367 3.83145 0.667015 4.30431 1.13987C4.77716 1.61273 5.04281 2.25405 5.04281 2.92277C5.04281 4.31496 3.91313 5.46809 2.52141 5.46809ZM20.9953 21.4009H16.6509V14.5759C16.6509 12.9493 16.6181 10.8634 14.3873 10.8634C12.1237 10.8634 11.7769 12.6306 11.7769 14.4587V21.4009H7.42781V7.38059H11.6034V9.29309H11.6644C12.2456 8.19152 13.6655 7.02902 15.7838 7.02902C20.19 7.02902 21 9.93059 21 13.6993V21.4009H20.9953Z" fill="white" fill-opacity="0.8"/>
</svg>
