<svg width="119" height="36" viewBox="0 0 119 36" fill="none" xmlns="http://www.w3.org/2000/svg">
<g clip-path="url(#clip0_2_19724)">
<path d="M118.167 32.2622C118.167 34.2621 116.622 35.8075 114.804 35.8075H3.35563C1.53755 35.8075 -0.0078125 34.2621 -0.0078125 32.2622V3.90023C-0.0078125 1.99125 1.53755 0.35498 3.35563 0.35498H114.713C116.622 0.35498 118.076 1.99125 118.076 3.90023L118.167 32.2622Z" fill="black"/>
<path d="M25.8999 17.8995C25.8999 15.0815 28.2634 13.6271 28.3543 13.6271C26.9907 11.6272 24.8999 11.4454 24.1727 11.3545C22.4455 11.1727 20.7184 12.3544 19.8093 12.3544C18.9003 12.3544 17.5367 11.3545 16.0823 11.3545C14.1733 11.3545 12.4461 12.4453 11.4462 14.1725C9.44628 17.6268 10.9007 22.8083 12.9006 25.6264C13.9006 26.9899 14.9914 28.5353 16.4459 28.5353C17.9003 28.4444 18.4458 27.6262 20.1729 27.6262C21.9001 27.6262 22.4455 28.5353 23.9 28.5353C25.4453 28.5353 26.4453 27.1717 27.3543 25.7173C28.4452 24.1719 28.8997 22.5356 28.8997 22.5356C28.8997 22.4447 25.9908 21.3539 25.8999 17.8995Z" fill="white"/>
<path d="M23.0815 9.44523C23.8996 8.44529 24.3541 7.17264 24.2632 5.80908C23.1724 5.89999 21.7179 6.62722 20.8998 7.53625C20.1725 8.35439 19.5362 9.71794 19.718 10.9906C20.9907 11.1724 22.2633 10.4452 23.0815 9.44523Z" fill="white"/>
<path d="M46.808 28.2623H44.8081L43.7173 24.808H39.8993L38.8085 28.2623H36.8086L40.6266 16.4448H42.9901L46.808 28.2623ZM43.3537 23.3535L42.3537 20.2628C42.2628 19.9901 42.081 19.1719 41.7174 18.0811C41.6265 18.6265 41.4447 19.3537 41.172 20.2628L40.172 23.3535H43.3537Z" fill="white"/>
<path d="M56.6255 23.8989C56.6255 25.3534 56.2619 26.5352 55.4438 27.3533C54.7165 28.0805 53.8984 28.4441 52.8076 28.4441C51.7167 28.4441 50.8986 28.0805 50.3532 27.2624V31.7167H48.4442V22.6263C48.4442 21.7173 48.4442 20.8082 48.3533 19.8083H49.9895L50.0804 21.1718C50.7168 20.1719 51.6258 19.6265 52.9894 19.6265C53.9893 19.6265 54.8074 19.9901 55.5347 20.8082C56.2619 21.6263 56.6255 22.6263 56.6255 23.8989ZM54.6256 23.9898C54.6256 23.1717 54.4438 22.4445 54.0802 21.8991C53.6257 21.3536 53.0803 21.0809 52.4439 21.0809C51.9894 21.0809 51.5349 21.2627 51.1713 21.5354C50.8077 21.8082 50.535 22.2627 50.4441 22.7172C50.3532 22.9899 50.3532 23.1717 50.3532 23.2626V24.7171C50.3532 25.3534 50.535 25.8988 50.8986 26.2624C51.2622 26.717 51.8076 26.8988 52.353 26.8988C53.0803 26.8988 53.6257 26.6261 53.9893 26.0806C54.4438 25.6261 54.6256 24.8989 54.6256 23.9898Z" fill="white"/>
<path d="M66.3518 23.8989C66.3518 25.3534 65.9881 26.5352 65.17 27.3533C64.5337 28.0805 63.6246 28.535 62.6247 28.535C61.5339 28.535 60.7157 28.1714 60.1703 27.3533V31.8076H58.2613V22.6263C58.2613 21.7173 58.2613 20.8082 58.1704 19.8083H59.8067L59.8976 21.1718C60.5339 20.1719 61.4429 19.6265 62.8065 19.6265C63.8064 19.6265 64.6246 19.9901 65.3518 20.8082C66.079 21.6263 66.3518 22.6263 66.3518 23.8989ZM64.4428 23.9898C64.4428 23.1717 64.261 22.4445 63.8974 21.8991C63.5337 21.3536 62.8974 21.0809 62.2611 21.0809C61.8066 21.0809 61.352 21.2627 60.9884 21.5354C60.6248 21.8082 60.3521 22.2627 60.2612 22.7172C60.1703 22.9899 60.1703 23.1717 60.1703 23.2626V24.7171C60.1703 25.3534 60.3521 25.8988 60.7157 26.2624C61.0793 26.717 61.6248 26.8988 62.1702 26.8988C62.8974 26.8988 63.4428 26.6261 63.8064 26.0806C64.261 25.6261 64.4428 24.8989 64.4428 23.9898Z" fill="white"/>
<path d="M77.3511 24.9898C77.3511 25.9897 76.9875 26.8079 76.2603 27.4442C75.533 28.1714 74.4422 28.4441 73.0786 28.4441C71.806 28.4441 70.806 28.1714 69.9879 27.7169L70.4424 26.1715C71.2606 26.626 72.1696 26.8988 73.1695 26.8988C73.8968 26.8988 74.4422 26.717 74.8058 26.4442C75.1694 26.0806 75.4421 25.717 75.4421 25.1716C75.4421 24.7171 75.2603 24.2625 74.9876 23.9898C74.624 23.6262 74.0786 23.3535 73.3514 23.0808C71.2606 22.3536 70.2606 21.1718 70.2606 19.7174C70.2606 18.7174 70.6242 17.9902 71.3515 17.3539C72.0787 16.7175 73.0786 16.4448 74.2604 16.4448C75.3512 16.4448 76.2603 16.6266 76.8966 16.9902L76.4421 18.5356C75.8058 18.172 74.9876 17.9902 74.1695 17.9902C73.5332 17.9902 72.9877 18.172 72.6241 18.4447C72.3514 18.7174 72.1696 19.081 72.1696 19.5356C72.1696 19.9901 72.3514 20.3537 72.715 20.7173C72.9877 20.99 73.6241 21.2627 74.4422 21.6263C75.4421 22.0809 76.1694 22.5354 76.7148 23.0808C77.0784 23.4444 77.3511 24.1716 77.3511 24.9898Z" fill="white"/>
<path d="M83.6234 21.1717H81.5326V25.3533C81.5326 26.4441 81.8962 26.8987 82.6235 26.8987C82.9871 26.8987 83.2598 26.8987 83.4416 26.8077L83.5325 28.2622C83.1689 28.444 82.6235 28.444 82.078 28.444C81.3508 28.444 80.7145 28.1713 80.3509 27.7168C79.8964 27.2623 79.7145 26.535 79.7145 25.4442V21.1717H78.4419V19.7173H79.7145V18.1719L81.5326 17.6265V19.7173H83.6234V21.1717Z" fill="white"/>
<path d="M92.9866 23.99C92.9866 25.2627 92.623 26.3535 91.8958 27.1716C91.0776 28.0807 90.0777 28.4443 88.805 28.4443C87.5324 28.4443 86.5324 27.9898 85.8052 27.1716C85.078 26.3535 84.7144 25.2627 84.7144 23.99C84.7144 22.6265 85.078 21.6265 85.8961 20.7175C86.6233 19.8993 87.7142 19.4448 88.9868 19.4448C90.2595 19.4448 91.2594 19.8993 91.9867 20.7175C92.623 21.6265 92.9866 22.7174 92.9866 23.99ZM91.0776 23.99C91.0776 23.1719 90.8958 22.5356 90.5322 21.9901C90.1686 21.3538 89.5323 20.9902 88.805 20.9902C88.0778 20.9902 87.4415 21.3538 87.0779 21.9901C86.7142 22.5356 86.5324 23.2628 86.5324 23.99C86.5324 24.8081 86.7142 25.4445 87.0779 25.9899C87.5324 26.6262 88.0778 26.9898 88.805 26.9898C89.5323 26.9898 90.0777 26.6262 90.5322 25.9899C90.8958 25.4445 91.0776 24.8081 91.0776 23.99Z" fill="white"/>
<path d="M99.1682 21.4445C98.9864 21.4445 98.8046 21.3536 98.5319 21.3536C97.8955 21.3536 97.3501 21.6263 96.9865 22.0809C96.7138 22.5354 96.532 23.0808 96.532 23.808V28.2623H94.623V22.4445C94.623 21.4445 94.623 20.5355 94.5321 19.8083H96.1684L96.2593 21.4445H96.3502C96.532 20.8991 96.8956 20.4446 97.2592 20.081C97.7137 19.8083 98.1683 19.6265 98.6228 19.6265C98.8046 19.6265 98.9864 19.6265 99.0773 19.6265L99.1682 21.4445Z" fill="white"/>
<path d="M107.622 23.6262C107.622 23.9898 107.622 24.2626 107.531 24.4444H101.895C101.895 25.2625 102.168 25.8988 102.713 26.3533C103.168 26.717 103.804 26.9897 104.531 26.9897C105.35 26.9897 106.168 26.8988 106.804 26.6261L107.077 27.8987C106.259 28.2623 105.35 28.4441 104.259 28.4441C102.895 28.4441 101.895 28.0805 101.168 27.2624C100.441 26.4442 100.077 25.4443 100.077 24.1717C100.077 22.899 100.441 21.8082 101.168 20.99C101.895 20.081 102.895 19.6265 104.168 19.6265C105.44 19.6265 106.35 20.081 106.986 20.99C107.349 21.7173 107.622 22.5354 107.622 23.6262ZM105.804 23.1717C105.804 22.6263 105.713 22.1718 105.44 21.7173C105.077 21.1718 104.622 20.8991 103.895 20.8991C103.259 20.8991 102.804 21.1718 102.35 21.6263C102.077 22.0809 101.804 22.5354 101.804 23.0808H105.804V23.1717Z" fill="white"/>
<path d="M42.4441 12.2632H41.4441L40.8987 10.536H39.0806L38.5352 12.2632H37.5353L39.4443 6.44531H40.626L42.4441 12.2632ZM40.8078 9.80875L40.3533 8.26339C40.2624 8.08158 40.1715 7.71797 40.0806 7.17254C39.9897 7.44525 39.8988 7.80887 39.8079 8.26339L39.3534 9.80875H40.8078Z" fill="white"/>
<path d="M47.171 8.08154L45.6257 12.2631H44.7166L43.1713 8.08154H44.1712L44.8984 10.2632C44.9893 10.6268 45.0802 10.9905 45.1711 11.3541C45.2621 11.0814 45.353 10.7178 45.4439 10.2632L46.1711 8.08154H47.171Z" fill="white"/>
<path d="M51.353 12.2633H50.5349L50.444 11.8088C50.1713 12.1724 49.7168 12.3542 49.2622 12.3542C48.8986 12.3542 48.535 12.2633 48.2623 11.9906C48.0805 11.7179 47.8987 11.4451 47.8987 11.1724C47.8987 10.627 48.0805 10.2634 48.535 9.99069C48.9895 9.71798 49.535 9.62707 50.3531 9.62707V9.44527C50.3531 8.89984 50.0804 8.62713 49.444 8.62713C48.9895 8.62713 48.6259 8.71804 48.3532 8.89984L48.1714 8.26352C48.535 7.99081 49.0804 7.8999 49.6259 7.8999C50.7167 7.8999 51.2621 8.44532 51.2621 9.62707V11.2633C51.2621 11.7179 51.353 11.9906 51.353 12.2633ZM50.3531 10.8088V10.1725C49.3531 10.1725 48.8077 10.4452 48.8077 10.9906C48.8077 11.1724 48.8986 11.3542 48.9895 11.4451C49.0804 11.5361 49.2622 11.627 49.444 11.627C49.6259 11.627 49.8077 11.5361 49.9895 11.4451C50.1713 11.3542 50.2622 11.1724 50.3531 10.9906V10.8088Z" fill="white"/>
<path d="M53.989 6.80909C53.989 6.9909 53.8981 7.08181 53.8072 7.17271C53.7163 7.26361 53.5345 7.35452 53.3527 7.35452C53.1709 7.35452 53.08 7.26361 52.9891 7.17271C52.8982 7.08181 52.8073 6.9 52.8073 6.80909C52.8073 6.62729 52.8982 6.53638 52.9891 6.44548C53.08 6.35458 53.2618 6.26367 53.3527 6.26367C53.5345 6.26367 53.6254 6.35458 53.7163 6.44548C53.8981 6.53638 53.989 6.62729 53.989 6.80909ZM53.8072 12.2633H52.8982V8.08175H53.8072V12.2633Z" fill="white"/>
<path d="M56.4433 6.17285H55.5343V12.2634H56.4433V6.17285Z" fill="white"/>
<path d="M61.2611 12.2633H60.4429L60.352 11.8088C59.9884 12.1724 59.6248 12.3542 59.0794 12.3542C58.7158 12.3542 58.3521 12.2633 58.0794 11.9906C57.8976 11.7179 57.7158 11.4451 57.7158 11.1724C57.7158 10.627 57.8976 10.2634 58.3521 9.99069C58.8067 9.71798 59.3521 9.62707 60.1702 9.62707V9.44527C60.1702 8.89984 59.8975 8.62713 59.2612 8.62713C58.8067 8.62713 58.4431 8.71804 58.1703 8.89984L57.9885 8.26352C58.3521 7.99081 58.8976 7.8999 59.443 7.8999C60.5338 7.8999 61.0793 8.44532 61.0793 9.62707V11.2633C61.1702 11.7179 61.1702 11.9906 61.2611 12.2633ZM60.2611 10.8088V10.1725C59.2612 10.1725 58.7158 10.4452 58.7158 10.9906C58.7158 11.1724 58.8067 11.3542 58.8976 11.4451C58.9885 11.5361 59.1703 11.627 59.3521 11.627C59.5339 11.627 59.7157 11.5361 59.8975 11.4451C60.0793 11.3542 60.1702 11.1724 60.2611 10.9906V10.8088Z" fill="white"/>
<path d="M66.8066 10.0817C66.8066 10.8089 66.6248 11.3544 66.2612 11.8089C65.8976 12.1725 65.534 12.3543 64.9885 12.3543C64.3522 12.3543 63.9886 12.0816 63.7159 11.6271L63.625 12.2634H62.7159C62.7159 11.8998 62.7159 11.5362 62.7159 11.1726V6.17285H63.625V8.71816C63.8977 8.26364 64.3522 7.99093 64.9885 7.99093C65.534 7.99093 65.8976 8.17273 66.2612 8.53635C66.6248 8.99087 66.8066 9.44539 66.8066 10.0817ZM65.8067 10.1726C65.8067 9.809 65.7158 9.44539 65.534 9.17268C65.3522 8.89997 65.0794 8.71816 64.7158 8.71816C64.4431 8.71816 64.2613 8.80906 64.0795 8.89996C63.8977 9.08177 63.8068 9.26358 63.7159 9.53629C63.7159 9.6272 63.7159 9.7181 63.7159 9.809V10.5362C63.7159 10.8089 63.8068 11.0817 63.9886 11.2635C64.1704 11.4453 64.4431 11.5362 64.7158 11.5362C65.0794 11.5362 65.3522 11.4453 65.534 11.1726C65.7158 10.9908 65.8067 10.6271 65.8067 10.1726Z" fill="white"/>
<path d="M69.0791 6.17285H68.17V12.2634H69.0791V6.17285Z" fill="white"/>
<path d="M74.1696 9.99052C74.1696 10.1723 74.1696 10.2632 74.1696 10.445H71.3515C71.3515 10.8996 71.5334 11.1723 71.7152 11.3541C71.9879 11.5359 72.2606 11.6268 72.6242 11.6268C73.0787 11.6268 73.4423 11.5359 73.715 11.445L73.8969 12.0813C73.5332 12.2631 73.0787 12.354 72.5333 12.354C71.897 12.354 71.3515 12.1722 70.9879 11.8086C70.6243 11.445 70.4425 10.8996 70.4425 10.2632C70.4425 9.62691 70.6243 9.08148 70.9879 8.71787C71.3515 8.26335 71.8061 8.08154 72.4424 8.08154C73.0787 8.08154 73.5332 8.26335 73.8059 8.71787C74.0787 8.99058 74.1696 9.4451 74.1696 9.99052ZM73.2605 9.71781C73.2605 9.4451 73.1696 9.17239 73.0787 8.99058C72.8969 8.71787 72.7151 8.62697 72.3515 8.62697C72.0788 8.62697 71.8061 8.71787 71.6243 8.99058C71.4424 9.17239 71.3515 9.4451 71.3515 9.71781H73.2605Z" fill="white"/>
<path d="M81.8967 10.1725C81.8967 10.8088 81.7149 11.3542 81.3513 11.7179C80.9877 12.1724 80.4422 12.3542 79.8059 12.3542C79.1696 12.3542 78.7151 12.1724 78.3515 11.7179C77.9878 11.3542 77.806 10.8088 77.806 10.1725C77.806 9.53617 77.9878 8.99075 78.3515 8.53623C78.7151 8.08171 79.2605 7.8999 79.8968 7.8999C80.5331 7.8999 80.9877 8.08171 81.3513 8.53623C81.7149 8.99075 81.8967 9.53617 81.8967 10.1725ZM80.8968 10.1725C80.8968 9.80888 80.8059 9.44527 80.624 9.17255C80.4422 8.80894 80.1695 8.71804 79.8059 8.71804C79.4423 8.71804 79.1696 8.89984 78.9878 9.17255C78.806 9.44527 78.7151 9.80888 78.7151 10.1725C78.7151 10.5361 78.806 10.8997 78.9878 11.1724C79.1696 11.5361 79.4423 11.627 79.8059 11.627C80.1695 11.627 80.4422 11.4451 80.624 11.0815C80.8059 10.8997 80.8968 10.5361 80.8968 10.1725Z" fill="white"/>
<path d="M86.8963 12.2632H85.9873V9.8997C85.9873 9.17247 85.7146 8.80886 85.1691 8.80886C84.8964 8.80886 84.7146 8.89976 84.5328 9.08157C84.351 9.26338 84.2601 9.53609 84.2601 9.8088V12.2632H83.3511V9.26338C83.3511 8.89976 83.3511 8.53615 83.3511 8.08163H84.1692V8.71795C84.2601 8.53615 84.4419 8.35434 84.6237 8.26343C84.8964 8.08163 85.1692 7.99072 85.4419 7.99072C85.8055 7.99072 86.1691 8.08163 86.4418 8.35434C86.8054 8.62705 86.8963 9.08157 86.8963 9.7179V12.2632Z" fill="white"/>
<path d="M92.9865 8.8088H91.9866V10.8087C91.9866 11.3541 92.1684 11.6268 92.532 11.6268C92.7138 11.6268 92.8047 11.6268 92.9865 11.6268V12.354C92.8047 12.4449 92.532 12.445 92.2593 12.445C91.8957 12.445 91.6229 12.354 91.4411 12.0813C91.2593 11.8995 91.1684 11.445 91.1684 10.9905V8.8088H90.5321V8.08157H91.1684V7.26343L92.0775 6.99072V7.99066H93.0774V8.8088H92.9865Z" fill="white"/>
<path d="M97.8956 12.2634H96.9865V9.89991C96.9865 9.17268 96.7138 8.80906 96.1684 8.80906C95.7139 8.80906 95.4412 8.99087 95.2594 9.44539C95.2594 9.53629 95.2594 9.6272 95.2594 9.809V12.3543H94.3503V6.17285H95.2594V8.71816C95.5321 8.26364 95.9866 8.08183 96.532 8.08183C96.8956 8.08183 97.2593 8.17273 97.532 8.44545C97.8047 8.71816 97.9865 9.26358 97.9865 9.809V12.2634H97.8956Z" fill="white"/>
<path d="M102.713 9.99052C102.713 10.1723 102.713 10.2632 102.713 10.445H99.8951C99.8951 10.8996 100.077 11.1723 100.259 11.3541C100.531 11.5359 100.804 11.6268 101.168 11.6268C101.622 11.6268 101.986 11.5359 102.259 11.445L102.44 12.0813C102.077 12.2631 101.531 12.354 101.077 12.354C100.441 12.354 99.8951 12.1722 99.5315 11.8086C99.1679 11.445 98.9861 10.8996 98.9861 10.2632C98.9861 9.62691 99.1679 9.08148 99.5315 8.71787C99.8951 8.26335 100.35 8.08154 100.986 8.08154C101.622 8.08154 102.077 8.26335 102.35 8.71787C102.531 8.99058 102.713 9.4451 102.713 9.99052ZM101.804 9.71781C101.804 9.4451 101.713 9.17239 101.622 8.99058C101.44 8.71787 101.259 8.62697 100.895 8.62697C100.622 8.62697 100.35 8.71787 100.168 8.99058C99.986 9.17239 99.8951 9.4451 99.8951 9.71781H101.804Z" fill="white"/>
</g>
<defs>
<clipPath id="clip0_2_19724">
<rect width="118.175" height="35.4525" fill="white" transform="translate(-0.0078125 0.35498)"/>
</clipPath>
</defs>
</svg>
