<svg width="119" height="36" viewBox="0 0 119 36" fill="none" xmlns="http://www.w3.org/2000/svg">
<g clip-path="url(#clip0_2_19753)">
<path d="M118.167 31.8047C118.167 33.8046 116.622 35.3499 114.804 35.3499H3.35563C1.53755 35.3499 -0.0078125 33.8046 -0.0078125 31.8047V3.44271C-0.0078125 1.53373 1.53755 -0.102539 3.35563 -0.102539H114.713C116.622 -0.102539 118.076 1.53373 118.076 3.44271L118.167 31.8047Z" fill="black"/>
<path d="M44.1916 23.9602H40.1925L39.2126 26.634H37.4534L41.3684 16.6387H43.0343L47.0427 26.634H45.1762L44.1916 23.9602ZM40.6965 22.5976H43.6829L42.6143 19.7604C42.465 19.3638 42.3204 18.9252 42.1757 18.4492C42.0497 18.8738 41.9097 19.3031 41.7557 19.7465L40.6965 22.5976Z" fill="white"/>
<path d="M47.8364 21.0295C47.8364 20.4788 47.8177 19.8722 47.7804 19.2096H49.3809C49.4416 19.5179 49.4837 19.8295 49.5069 20.1428C49.7868 19.8093 50.1358 19.5406 50.5298 19.3553C50.9238 19.17 51.3534 19.0725 51.7888 19.0696C52.2998 19.0624 52.8015 19.2072 53.2301 19.4855C53.6588 19.7638 53.9952 20.1631 54.1966 20.6328C54.4759 21.2834 54.6082 21.9877 54.5839 22.6953C54.5968 23.4628 54.4373 24.2235 54.1173 24.9212C53.8507 25.5015 53.4168 25.989 52.8714 26.3211C52.3043 26.6461 51.6582 26.8076 51.0048 26.7877C50.4946 26.7882 49.988 26.7014 49.5069 26.5311V29.6108L47.8037 29.7555L47.8364 21.0295ZM52.3161 24.8372C52.7022 24.2267 52.8852 23.5096 52.8387 22.7887C52.89 22.1544 52.738 21.5202 52.4047 20.9781C52.2734 20.7984 52.1002 20.6534 51.9002 20.5559C51.7001 20.4583 51.4793 20.411 51.2568 20.4182C50.9305 20.4115 50.6083 20.492 50.3235 20.6515C50.0263 20.8185 49.7571 21.0311 49.5256 21.2814V25.2665C49.714 25.3568 49.9131 25.4226 50.1182 25.4625C50.3391 25.5103 50.5642 25.5354 50.7902 25.5371C51.0826 25.556 51.3751 25.5019 51.6415 25.3797C51.9078 25.2576 52.1396 25.0711 52.3161 24.8372Z" fill="white"/>
<path d="M55.6665 21.0293C55.6665 20.4787 55.6478 19.8721 55.6105 19.2095H57.211C57.2717 19.5177 57.3137 19.8294 57.337 20.1427C57.6155 19.8077 57.9632 19.537 58.3564 19.3494C58.7495 19.1617 59.1786 19.0614 59.6142 19.0555C60.107 19.0481 60.592 19.1791 61.0141 19.4334C61.4672 19.7168 61.8249 20.1297 62.0407 20.6187C62.32 21.2693 62.4522 21.9736 62.428 22.6812C62.4482 23.4469 62.2967 24.2075 61.9847 24.907C61.7181 25.4874 61.2842 25.9748 60.7388 26.307C60.1717 26.632 59.5256 26.7935 58.8722 26.7736C58.362 26.7737 57.8555 26.6869 57.3743 26.5169V29.5967L55.6711 29.7414L55.6665 21.0293ZM60.1462 24.8371C60.5295 24.2258 60.7077 23.5081 60.6548 22.7885C60.7061 22.1542 60.5541 21.5201 60.2208 20.978C60.0895 20.7983 59.9163 20.6533 59.7163 20.5557C59.5162 20.4582 59.2954 20.4109 59.0729 20.418C58.7465 20.4105 58.4241 20.4911 58.1396 20.6514C57.8586 20.8218 57.6052 21.0343 57.3883 21.2813V25.2664C57.5767 25.3566 57.7759 25.4225 57.981 25.4623C58.2018 25.5102 58.427 25.5352 58.6529 25.537C58.94 25.5508 59.2261 25.4943 59.4864 25.3723C59.7466 25.2503 59.9731 25.0666 60.1462 24.8371Z" fill="white"/>
<path d="M65.6196 26.181C64.8893 25.781 64.2971 25.1693 63.921 24.4264C63.5105 23.5911 63.3072 22.6692 63.3284 21.7386C63.298 20.7411 63.5349 19.7535 64.0143 18.8782C64.4466 18.116 65.0965 17.5002 65.8809 17.1096C66.7029 16.7092 67.6077 16.5078 68.522 16.5217C69.0753 16.5178 69.627 16.582 70.1646 16.713C70.6686 16.8327 71.1583 17.0063 71.6251 17.231L71.1912 18.5422C70.3832 18.1325 69.4931 17.9108 68.5874 17.8936C67.9489 17.887 67.3198 18.0479 66.7628 18.3602C66.2337 18.6642 65.809 19.1213 65.5449 19.6714C65.2393 20.3216 65.0906 21.0345 65.1109 21.7526C65.1004 22.4009 65.2128 23.0454 65.4422 23.6518C65.6523 24.1873 66.0221 24.6452 66.5015 24.9631C67.0464 25.2965 67.6786 25.459 68.3167 25.4297C68.6498 25.4296 68.9823 25.4015 69.3106 25.3457C69.6287 25.2943 69.9411 25.2131 70.2439 25.1031V23.0779H67.9107V21.7573H71.8771V25.957C71.3018 26.2253 70.6995 26.4318 70.0806 26.573C69.4682 26.7128 68.8422 26.7848 68.214 26.7876C67.3118 26.8086 66.419 26.5998 65.6196 26.181Z" fill="white"/>
<path d="M78.0368 26.6526C77.9726 26.3279 77.9336 25.9988 77.9202 25.668C77.6367 25.9989 77.289 26.2687 76.8982 26.4613C76.4563 26.6861 75.9661 26.7998 75.4703 26.7926C75.0674 26.7978 74.6686 26.7116 74.3038 26.5406C73.9536 26.3775 73.6608 26.1124 73.4638 25.78C73.2484 25.4044 73.1418 24.9762 73.1558 24.5434C73.1428 24.2143 73.2065 23.8865 73.3417 23.5861C73.4769 23.2857 73.6801 23.0208 73.9351 22.8122C74.4515 22.3829 75.3179 22.1683 76.5343 22.1683C76.9871 22.1681 77.4394 22.2008 77.8875 22.2663V22.1216C77.9153 21.872 77.8924 21.6194 77.8202 21.3789C77.7481 21.1383 77.6281 20.9148 77.4675 20.7217C77.1334 20.4333 76.6994 20.2875 76.2589 20.3157C75.8647 20.3207 75.4728 20.3756 75.0924 20.4791C74.7166 20.568 74.3508 20.6946 74.0004 20.857L73.7205 19.6251C74.107 19.4593 74.5086 19.3311 74.9197 19.2425C75.4359 19.1267 75.9633 19.0688 76.4923 19.0698C77.0541 19.0548 77.6131 19.1548 78.1348 19.3638C78.5926 19.5674 78.9654 19.9237 79.1894 20.3717C79.468 20.9729 79.5976 21.6324 79.5674 22.2943V25.2527C79.5674 25.5638 79.586 26.0305 79.6234 26.6526H78.0368ZM77.0149 25.2527C77.3457 25.1023 77.6425 24.8865 77.8875 24.6181V23.2182C77.5096 23.1732 77.1295 23.1482 76.7489 23.1435C76.2378 23.0933 75.7244 23.213 75.2883 23.4842C75.1543 23.5985 75.0484 23.7422 74.9788 23.904C74.9092 24.0659 74.8778 24.2415 74.887 24.4175C74.875 24.5663 74.8945 24.716 74.9444 24.8567C74.9943 24.9974 75.0733 25.126 75.1764 25.2341C75.3989 25.4209 75.6842 25.516 75.9743 25.5C76.3342 25.5051 76.6903 25.4269 77.0149 25.2714V25.2527Z" fill="white"/>
<path d="M81.0745 24.865V16.0689L82.773 15.9336V24.5616C82.7508 24.797 82.8065 25.0331 82.9317 25.2336C82.9969 25.3029 83.0769 25.3566 83.1658 25.3905C83.2547 25.4244 83.3502 25.4378 83.445 25.4296C83.603 25.4243 83.7598 25.3992 83.9116 25.3549L84.1076 26.5775C83.9181 26.6511 83.7208 26.7027 83.5196 26.7315C83.3022 26.769 83.0822 26.7892 82.8617 26.7922C81.6733 26.7922 81.0776 26.1498 81.0745 24.865Z" fill="white"/>
<path d="M85.3158 24.865V16.0689L87.0143 15.9336V24.5616C86.991 24.7977 87.0486 25.0346 87.1777 25.2336C87.2424 25.3035 87.3224 25.3575 87.4114 25.3915C87.5005 25.4255 87.5961 25.4385 87.691 25.4296C87.849 25.4242 88.0058 25.3991 88.1576 25.3549L88.3582 26.5775C88.1669 26.6503 87.9682 26.702 87.7656 26.7315C87.5482 26.769 87.3282 26.7892 87.1077 26.7922C85.9162 26.7922 85.3189 26.1498 85.3158 24.865Z" fill="white"/>
<path d="M95.4047 23.1481H90.5191C90.5968 24.7036 91.3388 25.4813 92.7449 25.4813C93.1063 25.4801 93.4663 25.4378 93.8182 25.3553C94.1788 25.2721 94.5316 25.1581 94.8728 25.0147L95.2414 26.1813C94.3664 26.5938 93.4088 26.8012 92.4416 26.7879C91.7455 26.805 91.0565 26.6444 90.4397 26.3213C89.9058 26.0305 89.4777 25.578 89.2172 25.0287C88.9265 24.3925 88.786 23.698 88.8065 22.9988C88.7875 22.2673 88.9359 21.541 89.2405 20.8756C89.5011 20.3141 89.9215 19.8418 90.4491 19.5177C90.9917 19.1995 91.612 19.038 92.2409 19.0511C92.8659 19.0296 93.4822 19.2024 94.0048 19.5457C94.475 19.8721 94.8386 20.3298 95.0501 20.8616C95.285 21.4376 95.4024 22.0548 95.3954 22.6768L95.4047 23.1481ZM93.7388 22.0656C93.7396 21.5806 93.575 21.1098 93.2722 20.731C93.1379 20.5827 92.9724 20.466 92.7877 20.3894C92.6029 20.3127 92.4034 20.278 92.2036 20.2877C92.0011 20.2846 91.8003 20.3246 91.6144 20.405C91.4286 20.4855 91.262 20.6045 91.1257 20.7543C90.8037 21.1281 90.6063 21.593 90.5611 22.0842L93.7388 22.0656Z" fill="white"/>
<path d="M96.7766 21.0809C96.7766 20.6702 96.7766 20.0449 96.7206 19.2143H98.3118C98.3398 19.4197 98.3678 19.681 98.3911 19.9563C98.4145 20.2316 98.4378 20.4789 98.4471 20.6562C98.6186 20.3666 98.8121 20.0904 99.0258 19.8303C99.2161 19.613 99.4437 19.4313 99.6977 19.2937C99.9648 19.147 100.266 19.073 100.57 19.079C100.799 19.0748 101.027 19.1031 101.247 19.163L101.032 20.6422C100.854 20.5884 100.668 20.5617 100.482 20.5629C100.108 20.5545 99.7414 20.6621 99.4317 20.8709C99.0515 21.1484 98.7202 21.4874 98.4518 21.8741V26.6525H96.7579L96.7766 21.0809Z" fill="white"/>
<path d="M102.269 29.6994C102.06 29.6638 101.855 29.6139 101.653 29.5501L101.966 28.3088C102.078 28.3415 102.222 28.3695 102.4 28.4022C102.563 28.4307 102.728 28.4463 102.894 28.4488C103.65 28.4488 104.215 27.9822 104.593 26.9929L104.705 26.7129L101.956 19.2095H103.785L105.185 23.4092C105.364 23.9489 105.508 24.499 105.619 25.0564C105.745 24.5198 105.899 23.9831 106.086 23.4418L107.486 19.2141H109.184L106.436 26.7596C106.229 27.3657 105.949 27.944 105.601 28.4815C105.335 28.8902 104.971 29.2256 104.541 29.4567C104.082 29.679 103.577 29.7878 103.067 29.7741C102.799 29.7716 102.532 29.7467 102.269 29.6994Z" fill="white"/>
<path d="M37.4443 6.93262H40.5148L40.4308 7.67456H38.3449V9.1118H40.3095V9.80708H38.3449V11.403H40.5428L40.4681 12.1496H37.4443V6.93262Z" fill="white"/>
<path d="M42.6331 9.49416L41.0139 6.93701H42.0358L43.137 8.80355L44.2896 6.93701H45.2882L43.6783 9.4615L45.4189 12.154H44.383L43.1417 10.1008L41.8725 12.154H40.8785L42.6331 9.49416Z" fill="white"/>
<path d="M46.0815 6.93264H47.4814C48.0179 6.89688 48.5511 7.03962 48.998 7.33861C49.1723 7.47712 49.3111 7.65521 49.4028 7.8581C49.4945 8.06099 49.5365 8.28283 49.5253 8.5052C49.532 8.82264 49.4513 9.13581 49.292 9.41047C49.1346 9.66747 48.906 9.87332 48.634 10.0031C48.3311 10.1473 47.9989 10.2192 47.6634 10.2131C47.4329 10.2107 47.2031 10.1857 46.9775 10.1384V12.1496H46.0815V6.93264ZM48.3401 9.26581C48.4394 9.17165 48.5168 9.05679 48.5668 8.92938C48.6168 8.80197 48.6382 8.66512 48.6294 8.52853C48.6407 8.39745 48.6199 8.26559 48.5687 8.14441C48.5174 8.02323 48.4373 7.91641 48.3354 7.83324C48.0761 7.67616 47.7746 7.60284 47.4721 7.62326H47.0055V9.48979C47.1769 9.51786 47.3499 9.53501 47.5234 9.54112C47.821 9.55285 48.1123 9.453 48.3401 9.26114V9.26581Z" fill="white"/>
<path d="M50.4215 6.93262H51.3221V11.361H53.478L53.4033 12.1309H50.4215V6.93262Z" fill="white"/>
<path d="M54.8452 11.8926C54.4678 11.6755 54.164 11.3505 53.9726 10.9594C53.7602 10.524 53.6561 10.0437 53.6693 9.55947C53.6577 9.0598 53.7682 8.56484 53.9913 8.11758C54.203 7.72084 54.5278 7.39599 54.9246 7.18431C55.3655 6.95172 55.8588 6.83604 56.3571 6.84833C56.8308 6.83431 57.2996 6.94708 57.715 7.17498C58.0939 7.38888 58.3971 7.71492 58.583 8.10824C58.7898 8.53378 58.8921 9.00248 58.8816 9.47548C58.8951 9.98184 58.7829 10.4836 58.555 10.936C58.3485 11.3424 58.0229 11.6762 57.6217 11.8926C57.1914 12.1223 56.7095 12.238 56.2218 12.2286C55.7412 12.2415 55.2659 12.1255 54.8452 11.8926ZM57.1784 11.2534C57.4314 11.0827 57.6279 10.8407 57.743 10.5581C57.8731 10.2334 57.9366 9.88585 57.9297 9.53614C57.9343 9.19627 57.8791 8.85823 57.7664 8.53755C57.6638 8.25585 57.4784 8.01182 57.2344 7.8376C56.9593 7.65292 56.6322 7.56134 56.3011 7.57628C55.9707 7.56636 55.6451 7.65753 55.3679 7.8376C55.1146 8.02117 54.9175 8.27161 54.7986 8.56088C54.669 8.87279 54.6039 9.20772 54.6073 9.54547C54.6016 9.89162 54.6634 10.2356 54.7893 10.5581C54.8991 10.8422 55.0907 11.0875 55.3399 11.2627C55.6157 11.4459 55.9423 11.5373 56.2731 11.524C56.5969 11.5282 56.9142 11.4338 57.1831 11.2534H57.1784Z" fill="white"/>
<path d="M59.8846 6.93231H61.5179C61.9948 6.8996 62.469 7.02596 62.8664 7.29162C63.0208 7.41073 63.1439 7.56554 63.2251 7.74273C63.3064 7.91993 63.3435 8.11421 63.3331 8.30888C63.3358 8.54591 63.2852 8.78052 63.185 8.99537C63.0849 9.21021 62.9377 9.39981 62.7544 9.55013C62.6042 9.677 62.4339 9.77793 62.2505 9.84877L63.8557 12.1493H62.8104L61.4525 10.0821H60.7899V12.1493H59.8893L59.8846 6.93231ZM61.2845 9.4008C61.4861 9.40488 61.6859 9.36173 61.8678 9.27481C62.0312 9.19433 62.1675 9.06781 62.2598 8.91084C62.3555 8.74848 62.404 8.56263 62.3998 8.37421C62.4086 8.26562 62.3906 8.15654 62.3475 8.05649C62.3044 7.95644 62.2374 7.86846 62.1525 7.80025C61.9347 7.66537 61.6802 7.60175 61.4245 7.61826H60.7759V9.4008H61.2845Z" fill="white"/>
<path d="M64.5648 6.93262H67.6539L67.5699 7.67456H65.484V9.1118H67.4485V9.80708H65.484V11.403H67.6539L67.5745 12.1496H64.5554L64.5648 6.93262Z" fill="white"/>
<path d="M70.9762 6.93262H71.8768V12.1496H70.9762V6.93262Z" fill="white"/>
<path d="M74.2614 7.68856H72.6422L72.7215 6.93262H76.7812L76.6973 7.68856H75.162V12.1496H74.2614V7.68856Z" fill="white"/>
<path d="M80.6916 11.8926C80.3117 11.6771 80.0059 11.3518 79.8143 10.9594C79.6019 10.524 79.4978 10.0437 79.511 9.55947C79.4994 9.0598 79.6099 8.56484 79.833 8.11758C80.0437 7.72016 80.3688 7.39507 80.7663 7.18431C81.2055 6.95171 81.6972 6.83601 82.1941 6.84833C82.6678 6.83431 83.1366 6.94708 83.5521 7.17498C83.9309 7.38888 84.2341 7.71492 84.42 8.10824C84.6282 8.53345 84.7322 9.00212 84.7233 9.47548C84.7345 9.98162 84.6224 10.4829 84.3967 10.936C84.1873 11.3404 83.8625 11.6734 83.4634 11.8926C83.0327 12.1212 82.551 12.2368 82.0635 12.2286C81.5844 12.2409 81.1108 12.1249 80.6916 11.8926ZM83.0248 11.2534C83.2777 11.0827 83.4742 10.8407 83.5894 10.5581C83.7195 10.2334 83.783 9.88585 83.776 9.53614C83.7799 9.20394 83.7246 8.8737 83.6127 8.56088C83.5102 8.27918 83.3247 8.03515 83.0807 7.86093C82.8058 7.67595 82.4785 7.58433 82.1475 7.59961C81.8281 7.58339 81.5116 7.66731 81.2423 7.83964C80.9729 8.01197 80.7641 8.26412 80.6449 8.56088C80.5131 8.87213 80.448 9.20752 80.4536 9.54547C80.4487 9.89114 80.5089 10.2346 80.6309 10.5581C80.7434 10.8383 80.9367 11.0787 81.1862 11.2487C81.4615 11.4331 81.7885 11.5246 82.1195 11.51C82.4402 11.5174 82.7556 11.4279 83.0248 11.2534Z" fill="white"/>
<path d="M85.7271 6.93262H86.7863L89.3621 10.9737C89.3621 10.591 89.3295 10.2364 89.3295 9.9144V6.93262H90.1647V12.1496H89.1661L86.5483 8.0432C86.5717 8.50984 86.5857 8.92048 86.5857 9.28445V12.1496H85.7504L85.7271 6.93262Z" fill="white"/>
<path fill-rule="evenodd" clip-rule="evenodd" d="M24.7979 6.89062H15.1759C10.6402 6.89062 8.98364 8.55184 8.98364 13.0829V22.7048C8.98364 27.2358 10.6402 28.8971 15.1759 28.8971H24.7932C29.3289 28.8971 30.9901 27.2358 30.9901 22.7048V13.0829C30.9901 8.56117 29.3289 6.89062 24.7979 6.89062Z" fill="#CE0E2D"/>
<path d="M13.3428 17.8936H13.9261V20.7727H13.3428V19.6061H12.0269V20.7727H11.439V17.8936H12.0269V19.0555H13.3428V17.8936ZM16.6093 19.5408C16.6093 20.0074 16.3759 20.2594 15.9513 20.2594C15.5267 20.2594 15.298 20.0027 15.298 19.5221V17.8936H14.7334V19.5361C14.7133 19.705 14.7311 19.8763 14.7856 20.0374C14.8401 20.1986 14.9298 20.3455 15.0483 20.4676C15.1668 20.5896 15.311 20.6837 15.4704 20.7429C15.6299 20.8022 15.8005 20.8251 15.97 20.81C16.1417 20.8246 16.3146 20.8006 16.4759 20.7397C16.6372 20.6789 16.7829 20.5828 16.9023 20.4585C17.0217 20.3342 17.1118 20.1847 17.1661 20.0211C17.2203 19.8575 17.2374 19.6838 17.2159 19.5128V17.8936H16.6326L16.6093 19.5408ZM23.3521 19.8721L22.7222 17.8936H22.2555L21.6022 19.8721L20.9583 17.8936H20.3377L21.3409 20.768H21.8076L22.4655 18.8782L23.1188 20.768H23.5854L24.6167 17.8936H24.0147L23.3521 19.8721ZM25.6573 19.5361H26.7165V19.0088H25.6573V18.4209H27.1972V17.8936H25.088V20.768H27.2625V20.2267H25.6573V19.5361ZM27.9485 20.768H28.5224V17.8936H27.9578L27.9485 20.768ZM18.3685 20.1707L18.1072 20.7727H17.5099L18.7791 17.8936H19.2924L20.5523 20.7727H19.941L19.6844 20.1707H18.3685ZM18.5831 19.6528H19.4651L19.0264 18.6215L18.5831 19.6528Z" fill="white"/>
<path d="M19.9875 14.2307C19.0168 14.2307 18.0858 13.8454 17.399 13.1594C16.7122 12.4735 16.3257 11.543 16.3245 10.5723H16.8424C16.8424 11.4064 17.1738 12.2064 17.7636 12.7962C18.3534 13.386 19.1534 13.7174 19.9875 13.7174C20.8217 13.7174 21.6216 13.386 22.2115 12.7962C22.8013 12.2064 23.1326 11.4064 23.1326 10.5723H23.6506C23.6494 11.543 23.2629 12.4735 22.5761 13.1594C21.8892 13.8454 20.9582 14.2307 19.9875 14.2307Z" fill="white"/>
</g>
<defs>
<clipPath id="clip0_2_19753">
<rect width="118.175" height="35.4641" fill="white" transform="translate(-0.0078125 0.161621)"/>
</clipPath>
</defs>
</svg>
