<svg width="119" height="36" viewBox="0 0 119 36" fill="none" xmlns="http://www.w3.org/2000/svg">
<g clip-path="url(#clip0_2_19782)">
<path d="M118.167 32.7197C118.167 34.7196 116.622 36.265 114.804 36.265H3.35563C1.53755 36.265 -0.0078125 34.7196 -0.0078125 32.7197V4.35775C-0.0078125 2.44877 1.53755 0.8125 3.35563 0.8125H114.713C116.622 0.8125 118.076 2.44877 118.076 4.35775L118.167 32.7197Z" fill="black"/>
<path d="M41.5357 9.72354C41.5357 10.4508 41.3539 10.9962 40.8994 11.4507C40.4449 11.9961 39.7176 12.2688 38.9904 12.2688C38.2632 12.2688 37.6269 11.9961 37.0814 11.4507C36.536 10.9053 36.2633 10.269 36.2633 9.45083C36.2633 8.6327 36.536 7.99637 37.0814 7.45095C37.6269 6.90552 38.2632 6.63281 38.9904 6.63281C39.354 6.63281 39.7176 6.72372 40.0813 6.81462C40.4449 6.99643 40.7176 7.17824 40.8994 7.36004L40.4449 7.81456C40.0813 7.36004 39.6267 7.17824 38.9904 7.17824C38.445 7.17824 37.9905 7.36004 37.536 7.72366C37.1723 8.08727 36.8996 8.6327 36.8996 9.26902C36.8996 9.90535 37.0814 10.3599 37.536 10.8144C37.8996 11.178 38.445 11.3598 38.9904 11.3598C39.5358 11.3598 40.0813 11.178 40.4449 10.8144C40.7176 10.5417 40.8085 10.1781 40.8994 9.72354H38.9904V9.35993H41.5357C41.4448 9.45083 41.5357 9.63264 41.5357 9.72354Z" fill="white" stroke="white" stroke-width="0.181808" stroke-miterlimit="10"/>
<path d="M45.5356 7.54209H43.1721V9.17836H45.3537V9.81468H43.1721V11.451H45.5356V12.0873H42.4448V6.90576H45.5356V7.54209Z" fill="white" stroke="white" stroke-width="0.181808" stroke-miterlimit="10"/>
<path d="M48.3537 12.1782H47.7174V7.54209H46.2629V6.90576H49.8991V7.54209H48.4446V12.1782H48.3537Z" fill="white" stroke="white" stroke-width="0.181808" stroke-miterlimit="10"/>
<path d="M52.4445 12.1782V6.90576H53.0808V12.1782H52.4445Z" fill="white" stroke="white" stroke-width="0.181808" stroke-miterlimit="10"/>
<path d="M56.1712 12.1782H55.444V7.54209H53.9895V6.90576H57.6257V7.54209H56.1712V12.1782Z" fill="white" stroke="white" stroke-width="0.181808" stroke-miterlimit="10"/>
<path d="M64.4435 11.4505C63.898 11.996 63.2617 12.2687 62.5345 12.2687C61.8073 12.2687 61.08 11.996 60.6255 11.4505C60.0801 10.9051 59.8074 10.2688 59.8074 9.54157C59.8074 8.81434 60.0801 8.08711 60.6255 7.63259C61.1709 7.08716 61.8073 6.81445 62.5345 6.81445C63.2617 6.81445 63.898 7.08716 64.4435 7.63259C64.9889 8.17801 65.2616 8.81434 65.2616 9.54157C65.1707 10.2688 64.9889 10.9051 64.4435 11.4505ZM61.08 10.996C61.4436 11.3596 61.9891 11.5415 62.5345 11.5415C63.0799 11.5415 63.5344 11.3596 63.9889 10.996C64.3526 10.6324 64.5344 10.087 64.5344 9.45066C64.5344 8.81434 64.3526 8.35982 63.9889 7.9053C63.6253 7.54168 63.0799 7.35988 62.5345 7.35988C61.9891 7.35988 61.5345 7.54168 61.08 7.9053C60.7164 8.26891 60.5346 8.81434 60.5346 9.45066C60.5346 10.087 60.7164 10.6324 61.08 10.996Z" fill="white" stroke="white" stroke-width="0.181808" stroke-miterlimit="10"/>
<path d="M66.1708 12.1782V6.90576H66.9889L69.5342 10.9964V9.99649V6.90576H70.1705V12.1782H69.4433L66.8071 7.8148V8.81474V12.0873H66.1708V12.1782Z" fill="white" stroke="white" stroke-width="0.181808" stroke-miterlimit="10"/>
<path d="M59.6252 19.8139C57.5344 19.8139 55.8981 21.3593 55.8981 23.541C55.8981 25.7226 57.5344 27.268 59.6252 27.268C61.716 27.268 63.3522 25.7226 63.3522 23.541C63.3522 21.3593 61.716 19.8139 59.6252 19.8139ZM59.6252 25.8135C58.5343 25.8135 57.5344 24.9045 57.5344 23.541C57.5344 22.1774 58.5343 21.2684 59.6252 21.2684C60.716 21.2684 61.716 22.1774 61.716 23.541C61.716 24.8136 60.8069 25.8135 59.6252 25.8135ZM51.4438 19.8139C49.3531 19.8139 47.7168 21.3593 47.7168 23.541C47.7168 25.7226 49.3531 27.268 51.4438 27.268C53.5346 27.268 55.1709 25.7226 55.1709 23.541C55.2618 21.3593 53.5346 19.8139 51.4438 19.8139ZM51.4438 25.8135C50.353 25.8135 49.3531 24.9045 49.3531 23.541C49.3531 22.1774 50.353 21.2684 51.4438 21.2684C52.5347 21.2684 53.5346 22.1774 53.5346 23.541C53.6255 24.8136 52.6256 25.8135 51.4438 25.8135ZM41.808 20.9047V22.4501H45.626C45.5351 23.3591 45.2624 23.9955 44.8079 24.45C44.2624 24.9954 43.3534 25.6317 41.8989 25.6317C39.5354 25.6317 37.7174 23.7228 37.7174 21.4502C37.7174 19.1776 39.5354 17.2686 41.8989 17.2686C43.1716 17.2686 44.0806 17.7231 44.717 18.3594L45.8078 17.2686C44.8988 16.3596 43.6261 15.6323 41.808 15.6323C38.6264 15.6323 35.8993 18.2685 35.8993 21.4502C35.8993 24.6318 38.5355 27.268 41.808 27.268C43.5352 27.268 44.8079 26.7226 45.8078 25.6317C46.8077 24.6318 47.1714 23.0864 47.1714 21.9047C47.1714 21.5411 47.1714 21.1775 47.0805 20.9047H41.808ZM81.4421 22.1774C81.1694 21.3593 80.1694 19.8139 78.2605 19.8139C76.3515 19.8139 74.7152 21.3593 74.7152 23.541C74.7152 25.6317 76.2606 27.268 78.4423 27.268C80.1694 27.268 81.1694 26.2681 81.533 25.6317L80.2603 24.8136C79.8058 25.4499 79.2604 25.8135 78.4423 25.8135C77.6241 25.8135 76.9878 25.4499 76.6242 24.7227L81.6239 22.6319L81.4421 22.1774ZM76.3515 23.4501C76.3515 21.9956 77.4423 21.2684 78.2605 21.2684C78.8968 21.2684 79.4422 21.632 79.624 22.0865L76.3515 23.4501ZM72.3517 26.9953H73.988V16.0868H72.3517V26.9953ZM69.6246 20.632C69.1701 20.1775 68.5338 19.8139 67.6247 19.8139C65.8066 19.8139 64.0795 21.4502 64.0795 23.541C64.0795 25.6317 65.8066 27.268 67.6247 27.268C68.5338 27.268 69.261 26.9044 69.6246 26.4499H69.7155V26.9044C69.7155 28.3589 68.9883 29.0861 67.7156 29.0861C66.7157 29.0861 66.0794 28.3589 65.8066 27.7225L64.3522 28.3589C64.7158 29.3588 65.8066 30.5405 67.6247 30.5405C69.5337 30.5405 71.17 29.4497 71.17 26.6317V19.9048H69.6246V20.632ZM67.8065 25.8135C66.7157 25.8135 65.7157 24.9045 65.7157 23.541C65.7157 22.2683 66.6248 21.2684 67.8065 21.2684C68.8974 21.2684 69.8064 22.2683 69.8064 23.541C69.7155 24.8136 68.8974 25.8135 67.8065 25.8135ZM89.078 16.0868H85.1691V26.9953H86.8054V22.8137H89.078C90.8961 22.8137 92.6233 21.5411 92.6233 19.4503C92.6233 17.3595 90.8961 16.0868 89.078 16.0868ZM89.1689 21.3593H86.8054V17.6322H89.1689C90.3507 17.6322 91.0779 18.6321 91.0779 19.5412C91.0779 20.3593 90.3507 21.3593 89.1689 21.3593ZM99.2592 19.8139C98.0775 19.8139 96.8957 20.3593 96.3503 21.4502L97.8048 22.0865C98.0775 21.4502 98.7138 21.2684 99.2592 21.2684C100.077 21.2684 100.986 21.8138 100.986 22.6319V22.7228C100.714 22.541 100.077 22.2683 99.2592 22.2683C97.7139 22.2683 96.0776 23.0864 96.0776 24.7227C96.0776 26.1772 97.3503 27.0862 98.8047 27.0862C99.8956 27.0862 100.532 26.6317 100.896 25.9954H100.986V26.8135H102.532V22.6319C102.532 20.9047 101.077 19.8139 99.2592 19.8139ZM99.0774 25.8135C98.532 25.8135 97.8048 25.5408 97.8048 24.9045C97.8048 24.0864 98.7138 23.7228 99.5319 23.7228C100.259 23.7228 100.623 23.9046 100.986 24.0864C100.896 25.0863 99.9865 25.8135 99.0774 25.8135ZM108.35 19.9957L106.441 24.7227H106.35L104.441 19.9957H102.714L105.622 26.6317L103.986 30.3587H105.713L110.168 19.9957H108.35ZM93.6232 26.9953H95.2595V16.0868H93.6232V26.9953Z" fill="white"/>
<path d="M9.08261 7.36035C8.9008 7.63306 8.71899 8.08758 8.71899 8.633V27.9955C8.71899 28.5409 8.9008 28.9955 9.08261 29.2682L9.17351 29.3591L19.9911 18.5415V18.4506V18.3597L9.08261 7.36035Z" fill="url(#paint0_linear_2_19782)"/>
<path d="M23.6271 21.9961L19.991 18.36V18.269V18.1781L23.6271 14.542L23.718 14.6329L27.9905 17.0873C29.1722 17.8145 29.1722 18.9054 27.9905 19.6326L23.6271 21.9961Z" fill="url(#paint1_linear_2_19782)"/>
<path d="M23.7183 21.9961L19.9912 18.269L9.08276 29.1775C9.44638 29.632 10.1736 29.632 10.9008 29.2684L23.7183 21.9961Z" fill="url(#paint2_linear_2_19782)"/>
<path d="M23.7183 14.5419L10.9008 7.26962C10.1736 6.90601 9.53728 6.90601 9.08276 7.36053L19.9912 18.269L23.7183 14.5419Z" fill="url(#paint3_linear_2_19782)"/>
<path opacity="0.2" d="M23.6275 21.9053L10.901 29.0867C10.1737 29.4503 9.53741 29.4503 9.17379 29.0867L9.08289 29.1776L9.17379 29.2685C9.53741 29.6321 10.1737 29.6321 10.901 29.2685L23.6275 21.9053Z" fill="white" fill-opacity="0.2"/>
<path opacity="0.12" d="M9.08273 29.0866C8.81002 28.8139 8.71912 28.3594 8.71912 27.814V27.9049C8.71912 28.4503 8.90092 28.9048 9.08273 29.1775V29.0866Z" fill="white" fill-opacity="0.2"/>
<path opacity="0.12" d="M27.9907 19.4508L23.6273 21.9052L23.7182 21.9961L27.9907 19.5417C28.627 19.1781 28.8997 18.7236 28.8997 18.269C28.8997 18.7236 28.5361 19.0872 27.9907 19.4508Z" fill="white" fill-opacity="0.2"/>
<path opacity="0.25" d="M10.9007 7.45139L27.9906 17.1781C28.536 17.4508 28.8996 17.9053 28.8996 18.2689C28.8996 17.8144 28.6269 17.3599 27.9906 16.9963L10.9007 7.26958C9.71894 6.54235 8.71899 7.17868 8.71899 8.54223V8.72404C8.71899 7.36049 9.71894 6.72416 10.9007 7.45139Z" fill="white"/>
</g>
<defs>
<linearGradient id="paint0_linear_2_19782" x1="19.0749" y1="8.38566" x2="4.38416" y2="23.0764" gradientUnits="userSpaceOnUse">
<stop stop-color="#00A0FF"/>
<stop offset="0.00657445" stop-color="#00A1FF"/>
<stop offset="0.2601" stop-color="#00BEFF"/>
<stop offset="0.5122" stop-color="#00D2FF"/>
<stop offset="0.7604" stop-color="#00DFFF"/>
<stop offset="1" stop-color="#00E3FF"/>
</linearGradient>
<linearGradient id="paint1_linear_2_19782" x1="29.6097" y1="18.2703" x2="8.42837" y2="18.2703" gradientUnits="userSpaceOnUse">
<stop stop-color="#FFE000"/>
<stop offset="0.4087" stop-color="#FFBD00"/>
<stop offset="0.7754" stop-color="#FFA500"/>
<stop offset="1" stop-color="#FF9C00"/>
</linearGradient>
<linearGradient id="paint2_linear_2_19782" x1="21.725" y1="20.279" x2="1.80319" y2="40.2009" gradientUnits="userSpaceOnUse">
<stop stop-color="#FF3A44"/>
<stop offset="1" stop-color="#C31162"/>
</linearGradient>
<linearGradient id="paint3_linear_2_19782" x1="6.38019" y1="0.91581" x2="15.2761" y2="9.81175" gradientUnits="userSpaceOnUse">
<stop stop-color="#32A071"/>
<stop offset="0.0685" stop-color="#2DA771"/>
<stop offset="0.4762" stop-color="#15CF74"/>
<stop offset="0.8009" stop-color="#06E775"/>
<stop offset="1" stop-color="#00F076"/>
</linearGradient>
<clipPath id="clip0_2_19782">
<rect width="118.175" height="35.4525" fill="white" transform="translate(-0.0078125 0.54248)"/>
</clipPath>
</defs>
</svg>
