<svg width="17" height="16" viewBox="0 0 17 16" fill="none" xmlns="http://www.w3.org/2000/svg">
<path d="M15.8963 10.7829C16.5597 8.98721 16.5597 7.0136 15.8963 5.21794L8.39412 4.52194L0.891964 5.21733C0.228558 7.01299 0.228558 8.98659 0.891964 10.7823L8.39412 11.4783L15.8963 10.7829Z" fill="#F0F0F0"/>
<path d="M8.3929 16C10.0265 16.0003 11.621 15.5006 12.9622 14.5679C14.3033 13.6352 15.3268 12.3143 15.8951 10.7827H0.890747C1.45898 12.3143 2.48247 13.6352 3.82362 14.5679C5.16478 15.5006 6.75932 16.0003 8.3929 16Z" fill="#D80027"/>
<path d="M8.3929 1.8949e-07C6.75932 -0.00035527 5.16478 0.499396 3.82362 1.43208C2.48247 2.36476 1.45898 3.68566 0.890747 5.21723H15.8951C15.3268 3.68566 14.3033 2.36476 12.9622 1.43208C11.621 0.499396 10.0265 -0.00035527 8.3929 1.8949e-07Z" fill="#6DA544"/>
<path d="M2.73762 2.34341C1.99473 3.08628 1.40544 3.9682 1.00339 4.93882C0.601342 5.90943 0.394409 6.94974 0.394409 8.00033C0.394409 9.05092 0.601342 10.0912 1.00339 11.0618C1.40544 12.0325 1.99473 12.9144 2.73762 13.6573L5.61209 10.7828V5.21725L2.73762 2.34341Z" fill="black"/>
</svg>
