<svg width="21" height="20" viewBox="0 0 21 20" fill="none" xmlns="http://www.w3.org/2000/svg">
<g clip-path="url(#clip0_2_289)">
<path d="M19.2517 3.3975C19.0173 3.1162 18.7239 2.88996 18.3922 2.73485C18.0605 2.57973 17.6987 2.49955 17.3326 2.5H3.85922L3.82422 2.2075C3.75259 1.59951 3.46037 1.03894 3.00296 0.632065C2.54555 0.225186 1.95474 0.000284828 1.34255 0L1.15755 0C0.936538 0 0.724577 0.0877974 0.568296 0.244078C0.412016 0.400358 0.324219 0.61232 0.324219 0.833333C0.324219 1.05435 0.412016 1.26631 0.568296 1.42259C0.724577 1.57887 0.936538 1.66667 1.15755 1.66667H1.34255C1.54666 1.66669 1.74367 1.74163 1.8962 1.87726C2.04872 2.0129 2.14617 2.19979 2.17005 2.4025L3.31672 12.1525C3.43576 13.1665 3.92295 14.1015 4.68581 14.78C5.44867 15.4585 6.4341 15.8334 7.45505 15.8333H16.1576C16.3786 15.8333 16.5905 15.7455 16.7468 15.5893C16.9031 15.433 16.9909 15.221 16.9909 15C16.9909 14.779 16.9031 14.567 16.7468 14.4107C16.5905 14.2545 16.3786 14.1667 16.1576 14.1667H7.45505C6.93927 14.1652 6.43655 14.0043 6.01583 13.7059C5.59511 13.4075 5.27698 12.9863 5.10505 12.5H15.0384C16.0153 12.5001 16.9612 12.1569 17.7107 11.5304C18.4603 10.9039 18.9659 10.0339 19.1392 9.0725L19.7934 5.44417C19.8587 5.08417 19.844 4.71422 19.7504 4.36053C19.6568 4.00684 19.4865 3.67806 19.2517 3.3975Z" fill="white"/>
<path d="M6.15757 20C7.07805 20 7.82424 19.2538 7.82424 18.3333C7.82424 17.4129 7.07805 16.6667 6.15757 16.6667C5.2371 16.6667 4.49091 17.4129 4.49091 18.3333C4.49091 19.2538 5.2371 20 6.15757 20Z" fill="white"/>
<path d="M14.4909 20C15.4114 20 16.1576 19.2538 16.1576 18.3333C16.1576 17.4129 15.4114 16.6667 14.4909 16.6667C13.5704 16.6667 12.8242 17.4129 12.8242 18.3333C12.8242 19.2538 13.5704 20 14.4909 20Z" fill="white"/>
</g>
<defs>
<clipPath id="clip0_2_289">
<rect width="20" height="20" fill="white" transform="translate(0.324219)"/>
</clipPath>
</defs>
</svg>
