<svg width="51" height="51" viewBox="0 0 51 51" fill="none" xmlns="http://www.w3.org/2000/svg">
<path d="M37.8629 0.833984H12.9123C6.02595 0.833984 0.437012 6.43398 0.437012 13.334V38.334C0.437012 45.234 6.02595 50.834 12.9123 50.834H37.8629C44.7493 50.834 50.3382 45.234 50.3382 38.334V13.334C50.3382 6.43398 44.7493 0.833984 37.8629 0.833984Z" fill="#02AFA7"/>
<path d="M39.3944 32.1531H37.6183V29.9276C37.6183 28.4373 36.4658 27.2251 35.0487 27.2251H18.4974C17.9684 27.2251 17.5527 27.6623 17.5527 28.2187C17.5527 28.7751 17.9684 29.2122 18.4974 29.2122H35.0487C35.4266 29.2122 35.7289 29.5302 35.7289 29.9276V32.1332H14.5863C14.5863 32.1332 14.5485 31.5172 14.5485 31.2192C14.5485 24.5227 19.461 19.0582 25.5072 19.0582C28.8703 19.0582 32.0067 20.7472 34.104 23.6683C34.4252 24.1054 35.0109 24.2048 35.4266 23.867C35.8423 23.5292 35.9367 22.9132 35.6155 22.476C33.2916 19.2371 29.8906 17.3096 26.1873 17.091V15.2232C26.5085 14.945 26.7164 14.5277 26.7164 14.0508C26.7164 13.1963 26.0551 12.5009 25.2426 12.5009C24.4302 12.5009 23.7689 13.1963 23.7689 14.0508C23.7689 14.5277 23.9767 14.945 24.2979 15.2232V17.0115H10.8075C10.2785 17.0115 9.86279 17.4487 9.86279 18.0051C9.86279 18.5615 10.2785 18.9986 10.8075 18.9986H19.0831C17.8361 19.7934 16.7214 20.8069 15.7956 21.9991H11.1476C10.6186 21.9991 10.2029 22.4363 10.2029 22.9927C10.2029 23.549 10.6186 23.9862 11.1476 23.9862H14.473C13.9439 24.9599 13.5094 26.013 13.2071 27.1258H11.2799C10.7697 27.1258 10.3729 27.5629 10.3729 28.1193C10.3729 28.6757 10.7886 29.1129 11.2799 29.1129H12.8103C12.7158 29.8084 12.6969 32.1531 12.6969 32.1531H10.9964C10.4674 32.1531 10.0517 32.5903 10.0517 33.1467C10.0517 33.703 10.4674 34.1402 10.9964 34.1402H13.7361H15.3799C15.1532 34.5972 15.0398 35.1337 15.0398 35.6702C15.0398 37.5977 16.5324 39.1675 18.3652 39.1675C20.1979 39.1675 21.6905 37.5977 21.6905 35.6702C21.6905 35.1139 21.5583 34.5972 21.3504 34.1402H29.1726C28.9459 34.5972 28.8325 35.1337 28.8325 35.6702C28.8325 37.5977 30.3252 39.1675 32.1579 39.1675C33.9906 39.1675 35.4833 37.5977 35.4833 35.6702C35.4833 35.1139 35.351 34.5972 35.1432 34.1402H39.4133C39.9423 34.1402 40.358 33.703 40.358 33.1467C40.358 32.5903 39.9045 32.1531 39.3944 32.1531ZM18.3652 37.1804C17.5716 37.1804 16.9292 36.5048 16.9292 35.6702C16.9292 34.8357 17.5716 34.1601 18.3652 34.1601C19.1587 34.1601 19.8011 34.8357 19.8011 35.6702C19.8011 36.5048 19.1587 37.1804 18.3652 37.1804ZM32.139 37.1804C31.3455 37.1804 30.7031 36.5048 30.7031 35.6702C30.7031 34.8357 31.3455 34.1601 32.139 34.1601C32.9326 34.1601 33.575 34.8357 33.575 35.6702C33.575 36.5048 32.9326 37.1804 32.139 37.1804Z" fill="white"/>
</svg>
