<svg width="24" height="25" viewBox="0 0 24 25" fill="none" xmlns="http://www.w3.org/2000/svg">
<path d="M23 6.29467C22.2644 6.61584 21.4731 6.83303 20.6431 6.93085C21.4906 6.43064 22.1413 5.63941 22.4475 4.69621C21.655 5.15889 20.7763 5.49482 19.8419 5.67633C19.0931 4.89125 18.0269 4.40088 16.8469 4.40088C14.5806 4.40088 12.7437 6.20915 12.7437 8.4401C12.7437 8.75635 12.78 9.0646 12.85 9.36054C9.43938 9.19196 6.41625 7.58365 4.3925 5.13981C4.03937 5.73662 3.83687 6.43064 3.83687 7.17081C3.83687 8.57177 4.56125 9.80846 5.66187 10.5326C4.98937 10.5117 4.35688 10.3302 3.80375 10.0275C3.80313 10.0447 3.80312 10.0613 3.80312 10.0786C3.80312 12.0357 5.2175 13.668 7.095 14.039C6.75062 14.1313 6.38812 14.1806 6.01375 14.1806C5.74938 14.1806 5.4925 14.1553 5.24188 14.1086C5.76375 15.7132 7.27938 16.881 9.075 16.9136C7.67062 17.9971 5.90125 18.6425 3.97875 18.6425C3.6475 18.6425 3.32125 18.6234 3 18.5865C4.81562 19.7321 6.9725 20.4009 9.29 20.4009C16.8375 20.4009 20.9644 14.2458 20.9644 8.90832C20.9644 8.73297 20.9606 8.55885 20.9525 8.38534C21.7544 7.81622 22.45 7.10498 23 6.29467Z" fill="white" fill-opacity="0.8"/>
</svg>
